<svg viewBox="0 0 24 24" xmlns="http://www.w3.org/2000/svg" xmlns:xlink="http://www.w3.org/1999/xlink" width="24.000000" height="24.000000" fill="none">
	<rect id="icon / jam-icons / outline &amp; logos / linkedin" width="24.000000" height="24.000000" x="0.000000" y="0.000000" fill="rgb(255,255,255)" fill-opacity="0" />
	<path id="Vector" d="M21.959 13.719L21.959 21.098L17.681 21.098L17.681 14.213C17.681 12.483 17.062 11.303 15.514 11.303C14.332 11.303 13.628 12.099 13.319 12.868C13.206 13.143 13.177 13.526 13.177 13.911L13.177 21.098L8.897 21.098C8.897 21.098 8.955 9.438 8.897 8.229L13.177 8.229L13.177 10.053L13.149 10.095L13.177 10.095L13.177 10.053C13.745 9.178 14.76 7.927 17.033 7.927C19.848 7.927 21.959 9.767 21.959 13.719L21.959 13.719ZM4.421 2.026C2.958 2.026 2 2.986 2 4.249C2 5.484 2.93 6.473 4.365 6.473L4.393 6.473C5.886 6.473 6.813 5.484 6.813 4.249C6.787 2.986 5.887 2.026 4.422 2.026L4.421 2.026ZM2.254 21.098L6.532 21.098L6.532 8.229L2.254 8.229L2.254 21.098Z" fill="rgb(255,255,255)" fill-rule="nonzero" />
</svg>
