<svg width="190" height="39" viewBox="0 0 190 39" fill="none" xmlns="http://www.w3.org/2000/svg">
<path fill-rule="evenodd" clip-rule="evenodd" d="M0 0V24H24V0H0ZM3.41421 2L12 10.5858L20.5858 2H3.41421ZM22 3.41421L13.4142 12L22 20.5858V3.41421ZM20.5858 22L12 13.4142L3.41421 22H20.5858ZM2 20.5858L10.5858 12L2 3.41421V20.5858Z" fill="white"/>
<path d="M39.4141 15.3398H42.918C42.8477 16.4883 42.5312 17.5078 41.9688 18.3984C41.4141 19.2891 40.6367 19.9844 39.6367 20.4844C38.6445 20.9844 37.4492 21.2344 36.0508 21.2344C34.957 21.2344 33.9766 21.0469 33.1094 20.6719C32.2422 20.2891 31.5 19.7422 30.8828 19.0312C30.2734 18.3203 29.8086 17.4609 29.4883 16.4531C29.168 15.4453 29.0078 14.3164 29.0078 13.0664V11.8828C29.0078 10.6328 29.1719 9.50391 29.5 8.49609C29.8359 7.48047 30.3125 6.61719 30.9297 5.90625C31.5547 5.19531 32.3008 4.64844 33.168 4.26562C34.0352 3.88281 35.0039 3.69141 36.0742 3.69141C37.4961 3.69141 38.6953 3.94922 39.6719 4.46484C40.6562 4.98047 41.418 5.69141 41.957 6.59766C42.5039 7.50391 42.832 8.53516 42.9414 9.69141H39.4258C39.3867 9.00391 39.25 8.42188 39.0156 7.94531C38.7812 7.46094 38.4258 7.09766 37.9492 6.85547C37.4805 6.60547 36.8555 6.48047 36.0742 6.48047C35.4883 6.48047 34.9766 6.58984 34.5391 6.80859C34.1016 7.02734 33.7344 7.35938 33.4375 7.80469C33.1406 8.25 32.918 8.8125 32.7695 9.49219C32.6289 10.1641 32.5586 10.9531 32.5586 11.8594V13.0664C32.5586 13.9492 32.625 14.7266 32.7578 15.3984C32.8906 16.0625 33.0938 16.625 33.3672 17.0859C33.6484 17.5391 34.0078 17.8828 34.4453 18.1172C34.8906 18.3438 35.4258 18.457 36.0508 18.457C36.7852 18.457 37.3906 18.3398 37.8672 18.1055C38.3438 17.8711 38.707 17.5234 38.957 17.0625C39.2148 16.6016 39.3672 16.0273 39.4141 15.3398ZM44.4766 14.7891V14.543C44.4766 13.6133 44.6094 12.7578 44.875 11.9766C45.1406 11.1875 45.5273 10.5039 46.0352 9.92578C46.543 9.34766 47.168 8.89844 47.9102 8.57812C48.6523 8.25 49.5039 8.08594 50.4648 8.08594C51.4258 8.08594 52.2812 8.25 53.0312 8.57812C53.7812 8.89844 54.4102 9.34766 54.918 9.92578C55.4336 10.5039 55.8242 11.1875 56.0898 11.9766C56.3555 12.7578 56.4883 13.6133 56.4883 14.543V14.7891C56.4883 15.7109 56.3555 16.5664 56.0898 17.3555C55.8242 18.1367 55.4336 18.8203 54.918 19.4062C54.4102 19.9844 53.7852 20.4336 53.043 20.7539C52.3008 21.0742 51.4492 21.2344 50.4883 21.2344C49.5273 21.2344 48.6719 21.0742 47.9219 20.7539C47.1797 20.4336 46.5508 19.9844 46.0352 19.4062C45.5273 18.8203 45.1406 18.1367 44.875 17.3555C44.6094 16.5664 44.4766 15.7109 44.4766 14.7891ZM47.8516 14.543V14.7891C47.8516 15.3203 47.8984 15.8164 47.9922 16.2773C48.0859 16.7383 48.2344 17.1445 48.4375 17.4961C48.6484 17.8398 48.9219 18.1094 49.2578 18.3047C49.5938 18.5 50.0039 18.5977 50.4883 18.5977C50.957 18.5977 51.3594 18.5 51.6953 18.3047C52.0312 18.1094 52.3008 17.8398 52.5039 17.4961C52.707 17.1445 52.8555 16.7383 52.9492 16.2773C53.0508 15.8164 53.1016 15.3203 53.1016 14.7891V14.543C53.1016 14.0273 53.0508 13.543 52.9492 13.0898C52.8555 12.6289 52.7031 12.2227 52.4922 11.8711C52.2891 11.5117 52.0195 11.2305 51.6836 11.0273C51.3477 10.8242 50.9414 10.7227 50.4648 10.7227C49.9883 10.7227 49.582 10.8242 49.2461 11.0273C48.918 11.2305 48.6484 11.5117 48.4375 11.8711C48.2344 12.2227 48.0859 12.6289 47.9922 13.0898C47.8984 13.543 47.8516 14.0273 47.8516 14.543ZM61.9375 10.9453V21H58.5508V8.32031H61.7266L61.9375 10.9453ZM61.4688 14.2148H60.5312C60.5312 13.332 60.6367 12.5195 60.8477 11.7773C61.0664 11.0273 61.3828 10.3789 61.7969 9.83203C62.2188 9.27734 62.7383 8.84766 63.3555 8.54297C63.9727 8.23828 64.6875 8.08594 65.5 8.08594C66.0625 8.08594 66.5781 8.17188 67.0469 8.34375C67.5156 8.50781 67.918 8.76953 68.2539 9.12891C68.5977 9.48047 68.8633 9.94141 69.0508 10.5117C69.2383 11.0742 69.332 11.75 69.332 12.5391V21H65.957V12.9141C65.957 12.3359 65.8789 11.8906 65.7227 11.5781C65.5664 11.2656 65.3438 11.0469 65.0547 10.9219C64.7734 10.7969 64.4336 10.7344 64.0352 10.7344C63.5977 10.7344 63.2148 10.8242 62.8867 11.0039C62.5664 11.1836 62.3008 11.4336 62.0898 11.7539C61.8789 12.0664 61.7227 12.4336 61.6211 12.8555C61.5195 13.2773 61.4688 13.7305 61.4688 14.2148ZM69.0156 13.8281L67.8086 13.9805C67.8086 13.1523 67.9102 12.3828 68.1133 11.6719C68.3242 10.9609 68.6328 10.3359 69.0391 9.79688C69.4531 9.25781 69.9648 8.83984 70.5742 8.54297C71.1836 8.23828 71.8867 8.08594 72.6836 8.08594C73.293 8.08594 73.8477 8.17578 74.3477 8.35547C74.8477 8.52734 75.2734 8.80469 75.625 9.1875C75.9844 9.5625 76.2578 10.0547 76.4453 10.6641C76.6406 11.2734 76.7383 12.0195 76.7383 12.9023V21H73.3516V12.9023C73.3516 12.3164 73.2734 11.8711 73.1172 11.5664C72.9688 11.2539 72.75 11.0391 72.4609 10.9219C72.1797 10.7969 71.8438 10.7344 71.4531 10.7344C71.0469 10.7344 70.6914 10.8164 70.3867 10.9805C70.082 11.1367 69.8281 11.3555 69.625 11.6367C69.4219 11.918 69.2695 12.2461 69.168 12.6211C69.0664 12.9883 69.0156 13.3906 69.0156 13.8281ZM82.7266 10.7578V25.875H79.3516V8.32031H82.4805L82.7266 10.7578ZM90.7539 14.5195V14.7656C90.7539 15.6875 90.6445 16.543 90.4258 17.332C90.2148 18.1211 89.9023 18.8086 89.4883 19.3945C89.0742 19.9727 88.5586 20.4258 87.9414 20.7539C87.332 21.0742 86.6289 21.2344 85.832 21.2344C85.0586 21.2344 84.3867 21.0781 83.8164 20.7656C83.2461 20.4531 82.7656 20.0156 82.375 19.4531C81.9922 18.8828 81.6836 18.2227 81.4492 17.4727C81.2148 16.7227 81.0352 15.918 80.9102 15.0586V14.4141C81.0352 13.4922 81.2148 12.6484 81.4492 11.8828C81.6836 11.1094 81.9922 10.4414 82.375 9.87891C82.7656 9.30859 83.2422 8.86719 83.8047 8.55469C84.375 8.24219 85.043 8.08594 85.8086 8.08594C86.6133 8.08594 87.3203 8.23828 87.9297 8.54297C88.5469 8.84766 89.0625 9.28516 89.4766 9.85547C89.8984 10.4258 90.2148 11.1055 90.4258 11.8945C90.6445 12.6836 90.7539 13.5586 90.7539 14.5195ZM87.3672 14.7656V14.5195C87.3672 13.9805 87.3203 13.4844 87.2266 13.0312C87.1406 12.5703 87 12.168 86.8047 11.8242C86.6172 11.4805 86.3672 11.2148 86.0547 11.0273C85.75 10.832 85.3789 10.7344 84.9414 10.7344C84.4805 10.7344 84.0859 10.8086 83.7578 10.957C83.4375 11.1055 83.1758 11.3203 82.9727 11.6016C82.7695 11.8828 82.6172 12.2188 82.5156 12.6094C82.4141 13 82.3516 13.4414 82.3281 13.9336V15.5625C82.3672 16.1406 82.4766 16.6602 82.6562 17.1211C82.8359 17.5742 83.1133 17.9336 83.4883 18.1992C83.8633 18.4648 84.3555 18.5977 84.9648 18.5977C85.4102 18.5977 85.7852 18.5 86.0898 18.3047C86.3945 18.1016 86.6406 17.8242 86.8281 17.4727C87.0234 17.1211 87.1602 16.7148 87.2383 16.2539C87.3242 15.793 87.3672 15.2969 87.3672 14.7656ZM99.6953 18.1406V12.4922C99.6953 12.0859 99.6289 11.7383 99.4961 11.4492C99.3633 11.1523 99.1562 10.9219 98.875 10.7578C98.6016 10.5938 98.2461 10.5117 97.8086 10.5117C97.4336 10.5117 97.1094 10.5781 96.8359 10.7109C96.5625 10.8359 96.3516 11.0195 96.2031 11.2617C96.0547 11.4961 95.9805 11.7734 95.9805 12.0938H92.6055C92.6055 11.5547 92.7305 11.043 92.9805 10.5586C93.2305 10.0742 93.5938 9.64844 94.0703 9.28125C94.5469 8.90625 95.1133 8.61328 95.7695 8.40234C96.4336 8.19141 97.1758 8.08594 97.9961 8.08594C98.9805 8.08594 99.8555 8.25 100.621 8.57812C101.387 8.90625 101.988 9.39844 102.426 10.0547C102.871 10.7109 103.094 11.5312 103.094 12.5156V17.9414C103.094 18.6367 103.137 19.207 103.223 19.6523C103.309 20.0898 103.434 20.4727 103.598 20.8008V21H100.188C100.023 20.6562 99.8984 20.2266 99.8125 19.7109C99.7344 19.1875 99.6953 18.6641 99.6953 18.1406ZM100.141 13.2773L100.164 15.1875H98.2773C97.832 15.1875 97.4453 15.2383 97.1172 15.3398C96.7891 15.4414 96.5195 15.5859 96.3086 15.7734C96.0977 15.9531 95.9414 16.1641 95.8398 16.4062C95.7461 16.6484 95.6992 16.9141 95.6992 17.2031C95.6992 17.4922 95.7656 17.7539 95.8984 17.9883C96.0312 18.2148 96.2227 18.3945 96.4727 18.5273C96.7227 18.6523 97.0156 18.7148 97.3516 18.7148C97.8594 18.7148 98.3008 18.6133 98.6758 18.4102C99.0508 18.207 99.3398 17.957 99.543 17.6602C99.7539 17.3633 99.8633 17.082 99.8711 16.8164L100.762 18.2461C100.637 18.5664 100.465 18.8984 100.246 19.2422C100.035 19.5859 99.7656 19.9102 99.4375 20.2148C99.1094 20.5117 98.7148 20.7578 98.2539 20.9531C97.793 21.1406 97.2461 21.2344 96.6133 21.2344C95.8086 21.2344 95.0781 21.0742 94.4219 20.7539C93.7734 20.4258 93.2578 19.9766 92.875 19.4062C92.5 18.8281 92.3125 18.1719 92.3125 17.4375C92.3125 16.7734 92.4375 16.1836 92.6875 15.668C92.9375 15.1523 93.3047 14.7188 93.7891 14.3672C94.2812 14.0078 94.8945 13.7383 95.6289 13.5586C96.3633 13.3711 97.2148 13.2773 98.1836 13.2773H100.141ZM109 11.0273V21H105.625V8.32031H108.789L109 11.0273ZM108.508 14.2148H107.594C107.594 13.2773 107.715 12.4336 107.957 11.6836C108.199 10.9258 108.539 10.2812 108.977 9.75C109.414 9.21094 109.934 8.80078 110.535 8.51953C111.145 8.23047 111.824 8.08594 112.574 8.08594C113.168 8.08594 113.711 8.17188 114.203 8.34375C114.695 8.51562 115.117 8.78906 115.469 9.16406C115.828 9.53906 116.102 10.0352 116.289 10.6523C116.484 11.2695 116.582 12.0234 116.582 12.9141V21H113.184V12.9023C113.184 12.3398 113.105 11.9023 112.949 11.5898C112.793 11.2773 112.562 11.0586 112.258 10.9336C111.961 10.8008 111.594 10.7344 111.156 10.7344C110.703 10.7344 110.309 10.8242 109.973 11.0039C109.645 11.1836 109.371 11.4336 109.152 11.7539C108.941 12.0664 108.781 12.4336 108.672 12.8555C108.562 13.2773 108.508 13.7305 108.508 14.2148ZM122.91 19.5703L126.273 8.32031H129.895L124.797 22.9102C124.688 23.2305 124.539 23.5742 124.352 23.9414C124.172 24.3086 123.926 24.6562 123.613 24.9844C123.309 25.3203 122.922 25.5938 122.453 25.8047C121.992 26.0156 121.426 26.1211 120.754 26.1211C120.434 26.1211 120.172 26.1016 119.969 26.0625C119.766 26.0234 119.523 25.9688 119.242 25.8984V23.4258C119.328 23.4258 119.418 23.4258 119.512 23.4258C119.605 23.4336 119.695 23.4375 119.781 23.4375C120.227 23.4375 120.59 23.3867 120.871 23.2852C121.152 23.1836 121.379 23.0273 121.551 22.8164C121.723 22.6133 121.859 22.3477 121.961 22.0195L122.91 19.5703ZM121.504 8.32031L124.258 17.5078L124.738 21.082L122.441 21.3281L117.883 8.32031H121.504ZM148.398 18.2578V21H139.809V18.2578H148.398ZM140.945 3.9375V21H137.43V3.9375H140.945ZM149.664 14.7891V14.543C149.664 13.6133 149.797 12.7578 150.062 11.9766C150.328 11.1875 150.715 10.5039 151.223 9.92578C151.73 9.34766 152.355 8.89844 153.098 8.57812C153.84 8.25 154.691 8.08594 155.652 8.08594C156.613 8.08594 157.469 8.25 158.219 8.57812C158.969 8.89844 159.598 9.34766 160.105 9.92578C160.621 10.5039 161.012 11.1875 161.277 11.9766C161.543 12.7578 161.676 13.6133 161.676 14.543V14.7891C161.676 15.7109 161.543 16.5664 161.277 17.3555C161.012 18.1367 160.621 18.8203 160.105 19.4062C159.598 19.9844 158.973 20.4336 158.23 20.7539C157.488 21.0742 156.637 21.2344 155.676 21.2344C154.715 21.2344 153.859 21.0742 153.109 20.7539C152.367 20.4336 151.738 19.9844 151.223 19.4062C150.715 18.8203 150.328 18.1367 150.062 17.3555C149.797 16.5664 149.664 15.7109 149.664 14.7891ZM153.039 14.543V14.7891C153.039 15.3203 153.086 15.8164 153.18 16.2773C153.273 16.7383 153.422 17.1445 153.625 17.4961C153.836 17.8398 154.109 18.1094 154.445 18.3047C154.781 18.5 155.191 18.5977 155.676 18.5977C156.145 18.5977 156.547 18.5 156.883 18.3047C157.219 18.1094 157.488 17.8398 157.691 17.4961C157.895 17.1445 158.043 16.7383 158.137 16.2773C158.238 15.8164 158.289 15.3203 158.289 14.7891V14.543C158.289 14.0273 158.238 13.543 158.137 13.0898C158.043 12.6289 157.891 12.2227 157.68 11.8711C157.477 11.5117 157.207 11.2305 156.871 11.0273C156.535 10.8242 156.129 10.7227 155.652 10.7227C155.176 10.7227 154.77 10.8242 154.434 11.0273C154.105 11.2305 153.836 11.5117 153.625 11.8711C153.422 12.2227 153.273 12.6289 153.18 13.0898C153.086 13.543 153.039 14.0273 153.039 14.543ZM171.777 8.32031H174.836V20.5781C174.836 21.7344 174.578 22.7148 174.062 23.5195C173.555 24.332 172.844 24.9453 171.93 25.3594C171.016 25.7812 169.953 25.9922 168.742 25.9922C168.211 25.9922 167.648 25.9219 167.055 25.7812C166.469 25.6406 165.906 25.4219 165.367 25.125C164.836 24.8281 164.391 24.4531 164.031 24L165.52 22.0078C165.91 22.4609 166.363 22.8125 166.879 23.0625C167.395 23.3203 167.965 23.4492 168.59 23.4492C169.199 23.4492 169.715 23.3359 170.137 23.1094C170.559 22.8906 170.883 22.5664 171.109 22.1367C171.336 21.7148 171.449 21.2031 171.449 20.6016V11.25L171.777 8.32031ZM163.246 14.8125V14.5664C163.246 13.5977 163.363 12.7188 163.598 11.9297C163.84 11.1328 164.18 10.4492 164.617 9.87891C165.062 9.30859 165.602 8.86719 166.234 8.55469C166.867 8.24219 167.582 8.08594 168.379 8.08594C169.223 8.08594 169.93 8.24219 170.5 8.55469C171.07 8.86719 171.539 9.3125 171.906 9.89062C172.273 10.4609 172.559 11.1367 172.762 11.918C172.973 12.6914 173.137 13.5391 173.254 14.4609V15C173.137 15.8828 172.961 16.7031 172.727 17.4609C172.492 18.2188 172.184 18.8828 171.801 19.4531C171.418 20.0156 170.941 20.4531 170.371 20.7656C169.809 21.0781 169.137 21.2344 168.355 21.2344C167.574 21.2344 166.867 21.0742 166.234 20.7539C165.609 20.4336 165.074 19.9844 164.629 19.4062C164.184 18.8281 163.84 18.1484 163.598 17.3672C163.363 16.5859 163.246 15.7344 163.246 14.8125ZM166.621 14.5664V14.8125C166.621 15.3359 166.672 15.8242 166.773 16.2773C166.875 16.7305 167.031 17.1328 167.242 17.4844C167.461 17.8281 167.73 18.0977 168.051 18.293C168.379 18.4805 168.766 18.5742 169.211 18.5742C169.828 18.5742 170.332 18.4453 170.723 18.1875C171.113 17.9219 171.406 17.5586 171.602 17.0977C171.797 16.6367 171.91 16.1055 171.941 15.5039V13.9688C171.926 13.4766 171.859 13.0352 171.742 12.6445C171.625 12.2461 171.461 11.9062 171.25 11.625C171.039 11.3438 170.766 11.125 170.43 10.9688C170.094 10.8125 169.695 10.7344 169.234 10.7344C168.789 10.7344 168.402 10.8359 168.074 11.0391C167.754 11.2344 167.484 11.5039 167.266 11.8477C167.055 12.1914 166.895 12.5977 166.785 13.0664C166.676 13.5273 166.621 14.0273 166.621 14.5664ZM176.922 14.7891V14.543C176.922 13.6133 177.055 12.7578 177.32 11.9766C177.586 11.1875 177.973 10.5039 178.48 9.92578C178.988 9.34766 179.613 8.89844 180.355 8.57812C181.098 8.25 181.949 8.08594 182.91 8.08594C183.871 8.08594 184.727 8.25 185.477 8.57812C186.227 8.89844 186.855 9.34766 187.363 9.92578C187.879 10.5039 188.27 11.1875 188.535 11.9766C188.801 12.7578 188.934 13.6133 188.934 14.543V14.7891C188.934 15.7109 188.801 16.5664 188.535 17.3555C188.27 18.1367 187.879 18.8203 187.363 19.4062C186.855 19.9844 186.23 20.4336 185.488 20.7539C184.746 21.0742 183.895 21.2344 182.934 21.2344C181.973 21.2344 181.117 21.0742 180.367 20.7539C179.625 20.4336 178.996 19.9844 178.48 19.4062C177.973 18.8203 177.586 18.1367 177.32 17.3555C177.055 16.5664 176.922 15.7109 176.922 14.7891ZM180.297 14.543V14.7891C180.297 15.3203 180.344 15.8164 180.438 16.2773C180.531 16.7383 180.68 17.1445 180.883 17.4961C181.094 17.8398 181.367 18.1094 181.703 18.3047C182.039 18.5 182.449 18.5977 182.934 18.5977C183.402 18.5977 183.805 18.5 184.141 18.3047C184.477 18.1094 184.746 17.8398 184.949 17.4961C185.152 17.1445 185.301 16.7383 185.395 16.2773C185.496 15.8164 185.547 15.3203 185.547 14.7891V14.543C185.547 14.0273 185.496 13.543 185.395 13.0898C185.301 12.6289 185.148 12.2227 184.938 11.8711C184.734 11.5117 184.465 11.2305 184.129 11.0273C183.793 10.8242 183.387 10.7227 182.91 10.7227C182.434 10.7227 182.027 10.8242 181.691 11.0273C181.363 11.2305 181.094 11.5117 180.883 11.8711C180.68 12.2227 180.531 12.6289 180.438 13.0898C180.344 13.543 180.297 14.0273 180.297 14.543Z" fill="white"/>
<path d="M140.443 35H139.359V27.9922C139.359 27.5352 139.441 27.1504 139.605 26.8379C139.773 26.5215 140.014 26.2832 140.326 26.123C140.639 25.959 141.01 25.877 141.439 25.877C141.564 25.877 141.689 25.8848 141.814 25.9004C141.943 25.916 142.068 25.9395 142.189 25.9707L142.131 26.8555C142.049 26.8359 141.955 26.8223 141.85 26.8145C141.748 26.8066 141.646 26.8027 141.545 26.8027C141.314 26.8027 141.115 26.8496 140.947 26.9434C140.783 27.0332 140.658 27.166 140.572 27.3418C140.486 27.5176 140.443 27.7344 140.443 27.9922V35ZM141.791 28.6602V29.4922H138.357V28.6602H141.791ZM142.711 31.9004V31.7656C142.711 31.3086 142.777 30.8848 142.91 30.4941C143.043 30.0996 143.234 29.7578 143.484 29.4688C143.734 29.1758 144.037 28.9492 144.393 28.7891C144.748 28.625 145.146 28.543 145.588 28.543C146.033 28.543 146.434 28.625 146.789 28.7891C147.148 28.9492 147.453 29.1758 147.703 29.4688C147.957 29.7578 148.15 30.0996 148.283 30.4941C148.416 30.8848 148.482 31.3086 148.482 31.7656V31.9004C148.482 32.3574 148.416 32.7812 148.283 33.1719C148.15 33.5625 147.957 33.9043 147.703 34.1973C147.453 34.4863 147.15 34.7129 146.795 34.877C146.443 35.0371 146.045 35.1172 145.6 35.1172C145.154 35.1172 144.754 35.0371 144.398 34.877C144.043 34.7129 143.738 34.4863 143.484 34.1973C143.234 33.9043 143.043 33.5625 142.91 33.1719C142.777 32.7812 142.711 32.3574 142.711 31.9004ZM143.795 31.7656V31.9004C143.795 32.2168 143.832 32.5156 143.906 32.7969C143.98 33.0742 144.092 33.3203 144.24 33.5352C144.393 33.75 144.582 33.9199 144.809 34.0449C145.035 34.166 145.299 34.2266 145.6 34.2266C145.896 34.2266 146.156 34.166 146.379 34.0449C146.605 33.9199 146.793 33.75 146.941 33.5352C147.09 33.3203 147.201 33.0742 147.275 32.7969C147.354 32.5156 147.393 32.2168 147.393 31.9004V31.7656C147.393 31.4531 147.354 31.1582 147.275 30.8809C147.201 30.5996 147.088 30.3516 146.936 30.1367C146.787 29.918 146.6 29.7461 146.373 29.6211C146.15 29.4961 145.889 29.4336 145.588 29.4336C145.291 29.4336 145.029 29.4961 144.803 29.6211C144.58 29.7461 144.393 29.918 144.24 30.1367C144.092 30.3516 143.98 30.5996 143.906 30.8809C143.832 31.1582 143.795 31.4531 143.795 31.7656ZM150.926 29.6562V35H149.842V28.6602H150.896L150.926 29.6562ZM152.906 28.625L152.9 29.6328C152.811 29.6133 152.725 29.6016 152.643 29.5977C152.564 29.5898 152.475 29.5859 152.373 29.5859C152.123 29.5859 151.902 29.625 151.711 29.7031C151.52 29.7812 151.357 29.8906 151.225 30.0312C151.092 30.1719 150.986 30.3398 150.908 30.5352C150.834 30.7266 150.785 30.9375 150.762 31.168L150.457 31.3438C150.457 30.9609 150.494 30.6016 150.568 30.2656C150.646 29.9297 150.766 29.6328 150.926 29.375C151.086 29.1133 151.289 28.9102 151.535 28.7656C151.785 28.6172 152.082 28.543 152.426 28.543C152.504 28.543 152.594 28.5527 152.695 28.5723C152.797 28.5879 152.867 28.6055 152.906 28.625ZM158.18 26.4688V35H157.049V26.4688H158.18ZM161.754 30.3066V31.2324H157.934V30.3066H161.754ZM162.334 26.4688V27.3945H157.934V26.4688H162.334ZM164.695 28.6602V35H163.605V28.6602H164.695ZM163.523 26.9785C163.523 26.8027 163.576 26.6543 163.682 26.5332C163.791 26.4121 163.951 26.3516 164.162 26.3516C164.369 26.3516 164.527 26.4121 164.637 26.5332C164.75 26.6543 164.807 26.8027 164.807 26.9785C164.807 27.1465 164.75 27.291 164.637 27.4121C164.527 27.5293 164.369 27.5879 164.162 27.5879C163.951 27.5879 163.791 27.5293 163.682 27.4121C163.576 27.291 163.523 27.1465 163.523 26.9785ZM170.543 28.6602H171.527V34.8652C171.527 35.4238 171.414 35.9004 171.188 36.2949C170.961 36.6895 170.645 36.9883 170.238 37.1914C169.836 37.3984 169.371 37.502 168.844 37.502C168.625 37.502 168.367 37.4668 168.07 37.3965C167.777 37.3301 167.488 37.2148 167.203 37.0508C166.922 36.8906 166.686 36.6738 166.494 36.4004L167.062 35.7559C167.328 36.0762 167.605 36.2988 167.895 36.4238C168.188 36.5488 168.477 36.6113 168.762 36.6113C169.105 36.6113 169.402 36.5469 169.652 36.418C169.902 36.2891 170.096 36.0977 170.232 35.8438C170.373 35.5938 170.443 35.2852 170.443 34.918V30.0547L170.543 28.6602ZM166.178 31.9004V31.7773C166.178 31.293 166.234 30.8535 166.348 30.459C166.465 30.0605 166.631 29.7188 166.846 29.4336C167.064 29.1484 167.328 28.9297 167.637 28.7773C167.945 28.6211 168.293 28.543 168.68 28.543C169.078 28.543 169.426 28.6133 169.723 28.7539C170.023 28.8906 170.277 29.0918 170.484 29.3574C170.695 29.6191 170.861 29.9355 170.982 30.3066C171.104 30.6777 171.188 31.0977 171.234 31.5664V32.1055C171.191 32.5703 171.107 32.9883 170.982 33.3594C170.861 33.7305 170.695 34.0469 170.484 34.3086C170.277 34.5703 170.023 34.7715 169.723 34.9121C169.422 35.0488 169.07 35.1172 168.668 35.1172C168.289 35.1172 167.945 35.0371 167.637 34.877C167.332 34.7168 167.07 34.4922 166.852 34.2031C166.633 33.9141 166.465 33.5742 166.348 33.1836C166.234 32.7891 166.178 32.3613 166.178 31.9004ZM167.262 31.7773V31.9004C167.262 32.2168 167.293 32.5137 167.355 32.791C167.422 33.0684 167.521 33.3125 167.654 33.5234C167.791 33.7344 167.965 33.9004 168.176 34.0215C168.387 34.1387 168.639 34.1973 168.932 34.1973C169.291 34.1973 169.588 34.1211 169.822 33.9688C170.057 33.8164 170.242 33.6152 170.379 33.3652C170.52 33.1152 170.629 32.8438 170.707 32.5508V31.1387C170.664 30.9238 170.598 30.7168 170.508 30.5176C170.422 30.3145 170.309 30.1348 170.168 29.9785C170.031 29.8184 169.861 29.6914 169.658 29.5977C169.455 29.5039 169.217 29.457 168.943 29.457C168.646 29.457 168.391 29.5195 168.176 29.6445C167.965 29.7656 167.791 29.9336 167.654 30.1484C167.521 30.3594 167.422 30.6055 167.355 30.8867C167.293 31.1641 167.262 31.4609 167.262 31.7773ZM174.252 29.9199V35H173.162V28.6602H174.193L174.252 29.9199ZM174.029 31.5898L173.525 31.5723C173.529 31.1387 173.586 30.7383 173.695 30.3711C173.805 30 173.967 29.6777 174.182 29.4043C174.396 29.1309 174.664 28.9199 174.984 28.7715C175.305 28.6191 175.676 28.543 176.098 28.543C176.395 28.543 176.668 28.5859 176.918 28.6719C177.168 28.7539 177.385 28.8848 177.568 29.0645C177.752 29.2441 177.895 29.4746 177.996 29.7559C178.098 30.0371 178.148 30.377 178.148 30.7754V35H177.064V30.8281C177.064 30.4961 177.008 30.2305 176.895 30.0312C176.785 29.832 176.629 29.6875 176.426 29.5977C176.223 29.5039 175.984 29.457 175.711 29.457C175.391 29.457 175.123 29.5137 174.908 29.627C174.693 29.7402 174.521 29.8965 174.393 30.0957C174.264 30.2949 174.17 30.5234 174.111 30.7812C174.057 31.0352 174.029 31.3047 174.029 31.5898ZM178.137 30.9922L177.41 31.2148C177.414 30.8672 177.471 30.5332 177.58 30.2129C177.693 29.8926 177.855 29.6074 178.066 29.3574C178.281 29.1074 178.545 28.9102 178.857 28.7656C179.17 28.6172 179.527 28.543 179.93 28.543C180.27 28.543 180.57 28.5879 180.832 28.6777C181.098 28.7676 181.32 28.9062 181.5 29.0938C181.684 29.2773 181.822 29.5137 181.916 29.8027C182.01 30.0918 182.057 30.4355 182.057 30.834V35H180.967V30.8223C180.967 30.4668 180.91 30.1914 180.797 29.9961C180.688 29.7969 180.531 29.6582 180.328 29.5801C180.129 29.498 179.891 29.457 179.613 29.457C179.375 29.457 179.164 29.498 178.98 29.5801C178.797 29.6621 178.643 29.7754 178.518 29.9199C178.393 30.0605 178.297 30.2227 178.23 30.4062C178.168 30.5898 178.137 30.7852 178.137 30.9922ZM187.436 33.916V30.6523C187.436 30.4023 187.385 30.1855 187.283 30.002C187.186 29.8145 187.037 29.6699 186.838 29.5684C186.639 29.4668 186.393 29.416 186.1 29.416C185.826 29.416 185.586 29.4629 185.379 29.5566C185.176 29.6504 185.016 29.7734 184.898 29.9258C184.785 30.0781 184.729 30.2422 184.729 30.418H183.645C183.645 30.1914 183.703 29.9668 183.82 29.7441C183.938 29.5215 184.105 29.3203 184.324 29.1406C184.547 28.957 184.812 28.8125 185.121 28.707C185.434 28.5977 185.781 28.543 186.164 28.543C186.625 28.543 187.031 28.6211 187.383 28.7773C187.738 28.9336 188.016 29.1699 188.215 29.4863C188.418 29.7988 188.52 30.1914 188.52 30.6641V33.6172C188.52 33.8281 188.537 34.0527 188.572 34.291C188.611 34.5293 188.668 34.7344 188.742 34.9062V35H187.611C187.557 34.875 187.514 34.709 187.482 34.502C187.451 34.291 187.436 34.0957 187.436 33.916ZM187.623 31.1562L187.635 31.918H186.539C186.23 31.918 185.955 31.9434 185.713 31.9941C185.471 32.041 185.268 32.1133 185.104 32.2109C184.939 32.3086 184.814 32.4316 184.729 32.5801C184.643 32.7246 184.6 32.8945 184.6 33.0898C184.6 33.2891 184.645 33.4707 184.734 33.6348C184.824 33.7988 184.959 33.9297 185.139 34.0273C185.322 34.1211 185.547 34.168 185.812 34.168C186.145 34.168 186.438 34.0977 186.691 33.957C186.945 33.8164 187.146 33.6445 187.295 33.4414C187.447 33.2383 187.529 33.041 187.541 32.8496L188.004 33.3711C187.977 33.5352 187.902 33.7168 187.781 33.916C187.66 34.1152 187.498 34.3066 187.295 34.4902C187.096 34.6699 186.857 34.8203 186.58 34.9414C186.307 35.0586 185.998 35.1172 185.654 35.1172C185.225 35.1172 184.848 35.0332 184.523 34.8652C184.203 34.6973 183.953 34.4727 183.773 34.1914C183.598 33.9062 183.51 33.5879 183.51 33.2363C183.51 32.8965 183.576 32.5977 183.709 32.3398C183.842 32.0781 184.033 31.8613 184.283 31.6895C184.533 31.5137 184.834 31.3809 185.186 31.291C185.537 31.2012 185.93 31.1562 186.363 31.1562H187.623Z" fill="white"/>
</svg>
